<svg width="38" height="44" viewBox="0 0 38 44" fill="none" xmlns="http://www.w3.org/2000/svg">
  <path
    d="M3.5951 6.50834L31.3939 19.1838C31.5068 19.2346 31.439 19.4038 31.3205 19.3643L4.9976 10.2673C5.4266 11.6265 5.7793 13.0195 6.0558 14.4407L30.9932 20.481C31.1145 20.5092 31.0778 20.6896 30.9565 20.6727L6.4876 17.1591C6.6287 18.3181 6.719 19.4968 6.7585 20.684L30.8464 21.8289C30.9706 21.8345 30.9706 22.0178 30.8464 22.0235L6.7585 23.1683C6.7218 24.3583 6.6315 25.5342 6.4876 26.6932L30.9565 23.1796C31.0778 23.1627 31.1145 23.3404 30.9932 23.3714L6.0558 29.4116C5.7793 30.8328 5.4237 32.2259 4.9976 33.5851L31.3205 24.4881C31.4362 24.4486 31.5068 24.6178 31.3939 24.6685L3.5951 37.344C2.6018 39.6338 1.3969 41.8107 0 43.8495L38 21.9248L0 0C1.3969 2.03597 2.6018 4.21294 3.5951 6.50552"
    fill="#639CC5" />
</svg>